<svg xmlns="http://www.w3.org/2000/svg" viewBox="0 -0.018652355298399925 149.6599884033203 150.74864196777344">
	<path d="M74.59 150.73H4.11c-4 0-4.08-.08-4.08-4.15Q0 88.14 0 29.69c0-2.5.7-4.09 2.9-5.32 8.55-4.8 17-9.71 25.51-14.61 1.69-1 2.53-.64 2.52 1.38v2.28c0 27.38 0 54.77-.05 82.15a5.59 5.59 0 0 0 3.24 5.6Q53.3 112 72.3 123.2a4.62 4.62 0 0 0 5.18 0Q95 113 112.51 102.84a.92.92 0 0 1 .21-.13c6.06-1.78 6.63-6.17 6.57-11.77-.28-25.77-.12-51.56-.11-77.34v-2.28c0-1.83.8-2.29 2.38-1.4 2.65 1.48 5.31 3 7.93 4.49 6.06 3.52 12.08 7.11 18.17 10.58 1.79 1 2 2.49 2 4.27v117.15c0 4-.28 4.3-4.34 4.3H74.59z" fill="#00DC82"></path>
	<path d="M51.79 43.09V3.82C51.8.28 52 .07 55.5.05c2.87 0 5.74.09 8.61 0 2.23-.09 3 .84 2.93 3-.11 13 .56 26 .44 39-.15 16.21 0 32.43 0 48.64 0 3.66-.5 3.9-3.74 2-3.07-1.76-6.12-3.57-9.28-5.18a4.54 4.54 0 0 1-2.69-4.63c.08-13.26 0-26.52 0-39.77zM97.91 43.09v39.55a4.89 4.89 0 0 1-2.94 5c-3.22 1.66-6.25 3.69-9.42 5.45-2.51 1.39-3.41.87-3.33-2 .74-29.39.29-58.79.38-88.18 0-2.24.88-3 3-2.92 3 .11 6.08.16 9.12 0C97.31-.13 98 1 97.93 3.3c-.07 13.26 0 26.53 0 39.79z" fill="#FFC131"></path>
</svg>